<svg version="1.2" xmlns="http://www.w3.org/2000/svg" viewBox="0 0 500 500" width="500" height="500">
	<style>
		.s0 { fill: #099a6a;stroke: #ffffff;paint-order:stroke fill markers;stroke-linejoin: round;stroke-width: 60 } 
		.s1 { fill: #10b981;stroke: #ffffff;paint-order:stroke fill markers;stroke-linejoin: round;stroke-width: 60 } 
		.s2 { fill: #099a6a } 
		.s3 { fill: #10b981 } 
		.s4 { fill: #ffffff } 
	</style>
	<path class="s0" d="m249.69 30.16c5.9 1.82 11.89 3.34 17.66 5.49 24.39 9.08 48.69 18.39 73.05 27.54 27.6 10.36 55.19 20.72 82.84 30.91 3.4 1.25 3.18 3.51 3.18 6.15-0.02 42.76-0.1 85.5 0 128.25 0.08 36.72-7.59 71.71-22.47 105.22-10.24 23.06-23.31 44.37-39.51 63.69-22.03 26.33-47.98 47.78-79.72 61.4-11.05 4.74-22.78 7.86-34.6 11.19-0.41-59.1-0.41-117.67-0.27-176.54 4.9-4.99 9.66-9.64 14.62-14.45 0.48-0.32 0.74-0.51 1.33-0.87 7.17-7.12 14.03-14.09 21.03-21.25 0.33-0.47 0.51-0.73 0.86-1.31 4.91-4.96 9.68-9.62 14.64-14.42 0.47-0.33 0.73-0.52 1.31-0.91 8.58-8.54 16.85-16.89 25.25-25.42 0.33-0.47 0.52-0.73 0.86-1.31 6.32-6.37 12.48-12.43 18.85-18.63 0.47-0.33 0.73-0.52 1.23-0.91-6.73-7.67-13.69-15.15-21-22.99-6.79 6.87-12.51 12.76-18.31 18.56-20.22 20.13-40.47 40.24-60.72 59.86-0.04-73.42-0.07-146.34-0.11-219.25z"/>
	<path class="s1" d="m249.29 30.09c0.44 72.98 0.47 145.9 0.35 219.63-7.39 8.05-14.62 15.3-22.34 23.03-18.82-18.86-37.09-37.16-55.06-55.16-7.56 7.58-15.12 15.18-23.01 23.09 1.08 0.95 2.59 2.15 3.95 3.5 10.25 10.23 20.55 20.39 30.69 30.71 12.98 13.19 25.82 26.5 38.74 39.75 1.84 1.89 2.96 3.66 5.93 0.28 6.6-7.45 14.05-14.14 21.16-21.15 0.01 58.56 0.01 117.13 0.01 176.18-16.48-3.42-32.56-8.77-47.03-17.42-13.85-8.27-27.28-17.48-39.85-27.6-24.33-19.58-42.04-44.74-57.11-71.86-14.42-25.95-24.26-53.51-28.39-82.93-1.64-11.64-2.97-23.42-3.06-35.15-0.35-44.85-0.07-89.71-0.27-134.58-0.02-4.13 1.66-5.93 4.96-7.15 35.27-13.07 70.57-26.05 105.8-39.2 21.08-7.88 42.06-16.01 63.09-24 0.3-0.12 0.69-0.03 1.44 0.03z"/>
	<path id="Layer copy" class="s2" d="m248.69 30.16c5.9 1.82 11.89 3.34 17.66 5.49 24.39 9.08 48.69 18.39 73.05 27.54 27.6 10.36 55.19 20.72 82.84 30.91 3.4 1.25 3.18 3.51 3.18 6.15-0.02 42.76-0.1 85.5 0 128.25 0.08 36.72-7.59 71.71-22.47 105.22-10.24 23.06-23.31 44.37-39.51 63.69-22.03 26.33-47.98 47.78-79.72 61.4-11.05 4.74-22.78 7.86-34.6 11.19-0.41-59.1-0.41-117.67-0.27-176.54 4.9-4.99 9.66-9.64 14.62-14.45 0.48-0.32 0.74-0.51 1.33-0.87 7.17-7.12 14.03-14.09 21.03-21.25 0.33-0.47 0.51-0.73 0.86-1.31 4.91-4.96 9.68-9.62 14.64-14.42 0.47-0.33 0.73-0.52 1.31-0.91 8.58-8.54 16.85-16.89 25.25-25.42 0.33-0.47 0.52-0.73 0.86-1.31 6.32-6.37 12.48-12.43 18.85-18.63 0.47-0.33 0.73-0.52 1.23-0.91-6.73-7.67-13.69-15.15-21-22.99-6.79 6.87-12.51 12.76-18.31 18.56-20.22 20.13-40.47 40.24-60.72 59.86-0.04-73.42-0.07-146.34-0.11-219.25z"/>
	<path id="Layer copy 2" class="s3" d="m249.29 30.09c0.44 72.98 0.47 145.9 0.35 219.63-7.39 8.05-14.62 15.3-22.34 23.03-18.82-18.86-37.09-37.16-55.06-55.16-7.56 7.58-15.12 15.18-23.01 23.09 1.08 0.95 2.59 2.15 3.95 3.5 10.25 10.23 20.55 20.39 30.69 30.71 12.98 13.19 25.82 26.5 38.74 39.75 1.84 1.89 2.96 3.66 5.93 0.28 6.6-7.45 14.05-14.14 21.16-21.15 0.01 58.56 0.01 117.13 0.01 176.18-16.48-3.42-32.56-8.77-47.03-17.42-13.85-8.27-27.28-17.48-39.85-27.6-24.33-19.58-42.04-44.74-57.11-71.86-14.42-25.95-24.26-53.51-28.39-82.93-1.64-11.64-2.97-23.42-3.06-35.15-0.35-44.85-0.07-89.71-0.27-134.58-0.02-4.13 1.66-5.93 4.96-7.15 35.27-13.07 70.57-26.05 105.8-39.2 21.08-7.88 42.06-16.01 63.09-24 0.3-0.12 0.69-0.03 1.44 0.03z"/>
	<path class="s4" d="m249.85 293.46c-7.26 7.32-14.71 14.01-21.31 21.46-2.97 3.38-4.09 1.61-5.93-0.28-12.92-13.25-25.76-26.56-38.74-39.75-10.14-10.32-20.44-20.48-30.69-30.71-1.36-1.35-2.87-2.55-3.95-3.5 7.89-7.91 15.45-15.51 23.01-23.09 17.97 18 36.24 36.3 55.06 55.16 7.72-7.73 14.95-14.98 22.35-22.53 20.4-20.43 40.65-40.54 60.87-60.67 5.8-5.8 11.52-11.69 18.31-18.56 7.31 7.84 14.27 15.32 20.73 22.99-0.72 0.5-0.94 0.77-1.15 1.06-6.18 6.05-12.34 12.11-18.9 18.61-0.51 0.74-0.64 1.06-0.77 1.38-8.25 8.33-16.52 16.68-25.37 25.23-0.8 0.49-1.02 0.76-1.23 1.04-4.77 4.66-9.54 9.32-14.69 14.41-0.52 0.75-0.64 1.06-0.77 1.38-6.85 6.96-13.71 13.93-21.15 21.06-0.81 0.44-1.04 0.72-1.25 1.01-4.77 4.66-9.53 9.31-14.43 14.3z"/>
</svg>